<svg width="194" height="66" viewBox="0 0 194 66" fill="none" xmlns="http://www.w3.org/2000/svg">
<path d="M178.355 0.477261H15.4407C14.8469 0.477261 14.2601 0.477261 13.6679 0.480502C13.1721 0.483742 12.6803 0.493156 12.1797 0.501079C11.0923 0.513882 10.0074 0.609597 8.93453 0.787392C7.86316 0.969057 6.82535 1.31155 5.8562 1.80328C4.88824 2.29918 4.00378 2.94354 3.23492 3.71299C2.46202 4.48029 1.81775 5.36717 1.32688 6.33955C0.834653 7.30999 0.493343 8.34991 0.314735 9.42338C0.13443 10.4955 0.0374061 11.58 0.0245343 12.6671C0.00950603 13.1639 0.00791899 13.6623 0 14.1591V51.6098C0.00791899 52.1128 0.00950603 52.6002 0.0245343 53.1035C0.0374101 54.1905 0.134434 55.2749 0.314735 56.347C0.49285 57.4211 0.83418 58.4616 1.32688 59.4324C1.81752 60.4017 2.46188 61.285 3.23492 62.048C4.00086 62.8209 4.88589 63.4657 5.8562 63.9578C6.82534 64.4508 7.86304 64.7953 8.93453 64.9798C10.0076 65.1562 11.0924 65.2519 12.1797 65.2663C12.6803 65.2773 13.1721 65.2836 13.6679 65.2836C14.2601 65.2868 14.8469 65.2868 15.4407 65.2868H178.355C178.937 65.2868 179.529 65.2868 180.111 65.2836C180.604 65.2836 181.11 65.2773 181.604 65.2663C182.689 65.2527 183.772 65.1569 184.842 64.9798C185.917 64.7941 186.959 64.4496 187.933 63.9578C188.902 63.4654 189.786 62.8206 190.551 62.048C191.323 61.282 191.968 60.3993 192.465 59.4324C192.954 58.4609 193.292 57.4205 193.468 56.347C193.648 55.2748 193.749 54.1906 193.768 53.1035C193.774 52.6002 193.774 52.1128 193.774 51.6098C193.787 51.0211 193.787 50.4357 193.787 49.8375V15.9281C193.787 15.3347 193.787 14.7461 193.774 14.1591C193.774 13.6623 193.774 13.1639 193.768 12.667C193.749 11.5798 193.648 10.4956 193.468 9.42332C193.292 8.35046 192.954 7.31063 192.465 6.33948C191.465 4.39046 189.88 2.80397 187.933 1.80314C186.959 1.3126 185.917 0.970204 184.842 0.787246C183.772 0.608667 182.689 0.512919 181.604 0.500852C181.11 0.492945 180.604 0.483451 180.111 0.480291C179.529 0.477051 178.937 0.477051 178.355 0.477051V0.477261Z" fill="#A6A6A6"/>
<path d="M13.6757 63.8691C13.1823 63.8691 12.7008 63.8628 12.2113 63.8517C11.1972 63.8385 10.1854 63.7502 9.18433 63.5875C8.25088 63.4266 7.34662 63.1274 6.50137 62.6997C5.66387 62.2756 4.9 61.7195 4.23903 61.0526C3.56849 60.3936 3.01023 59.6293 2.58639 58.7899C2.15787 57.9451 1.86131 57.0396 1.70704 56.1049C1.54044 55.1005 1.4503 54.0849 1.4374 53.0669C1.42714 52.7252 1.4137 51.5875 1.4137 51.5875V14.159C1.4137 14.159 1.42801 13.0388 1.43749 12.7097C1.44984 11.6933 1.53945 10.6793 1.70555 9.67647C1.86011 8.7392 2.15689 7.83105 2.58564 6.98347C3.00793 6.1447 3.56309 5.37981 4.22959 4.71846C4.89534 4.05082 5.66165 3.49181 6.50057 3.06181C7.34388 2.6355 8.24643 2.33841 9.178 2.1805C10.1824 2.01615 11.1976 1.9273 12.2153 1.91468L13.6765 1.8949H180.103L181.581 1.91547C182.59 1.92746 183.596 2.01552 184.591 2.17891C185.532 2.3388 186.444 2.63796 187.297 3.06656C188.977 3.93314 190.345 5.30415 191.208 6.98743C191.629 7.82915 191.922 8.72989 192.074 9.65907C192.242 10.6701 192.336 11.6921 192.356 12.7168C192.36 13.1757 192.36 13.6685 192.36 14.159C192.373 14.7666 192.373 15.3449 192.373 15.928V49.8375C192.373 50.4261 192.373 51.0005 192.36 51.5796C192.36 52.1065 192.36 52.5891 192.354 53.0859C192.335 54.0923 192.243 55.0961 192.077 56.089C191.926 57.0305 191.631 57.9431 191.203 58.7948C190.776 59.625 190.221 60.3827 189.558 61.04C188.897 61.7104 188.131 62.2698 187.292 62.6967C186.441 63.1276 185.531 63.4279 184.591 63.5875C183.59 63.7511 182.578 63.8394 181.564 63.8517C181.089 63.8628 180.593 63.8691 180.11 63.8691L178.355 63.8723L13.6757 63.8691Z" fill="black"/>
<path d="M40.1113 33.3692C40.1288 32.0168 40.4878 30.6908 41.155 29.5146C41.8223 28.3384 42.7761 27.3502 43.9276 26.6418C43.1961 25.5965 42.231 24.7363 41.109 24.1294C39.987 23.5225 38.7391 23.1858 37.4642 23.1459C34.7448 22.8603 32.1085 24.7739 30.7227 24.7739C29.3101 24.7739 27.1766 23.1742 24.879 23.2215C23.3929 23.2696 21.9446 23.7019 20.6752 24.4765C19.4057 25.2511 18.3585 26.3414 17.6355 27.6413C14.5035 33.0666 16.8397 41.0398 19.8398 45.4252C21.3409 47.5726 23.0952 49.9713 25.3906 49.8862C27.6369 49.793 28.4758 48.4531 31.1872 48.4531C33.8734 48.4531 34.6605 49.8862 37.0026 49.8321C39.4129 49.793 40.9315 47.6752 42.3799 45.5075C43.4584 43.9774 44.2883 42.2863 44.8388 40.4969C43.4385 39.9043 42.2435 38.9124 41.4028 37.6449C40.5621 36.3774 40.113 34.8904 40.1113 33.3692Z" fill="white"/>
<path d="M35.6877 20.2617C37.0019 18.6833 37.6494 16.6544 37.4926 14.6061C35.4848 14.8171 33.6301 15.7772 32.2982 17.295C31.6469 18.0366 31.1482 18.8992 30.8304 19.8338C30.5126 20.7683 30.382 21.7563 30.446 22.7413C31.4503 22.7516 32.4438 22.5339 33.3518 22.1044C34.2597 21.6749 35.0584 21.0448 35.6877 20.2617Z" fill="white"/>
<path d="M68.5053 44.4492H60.8399L58.9991 49.8875H55.7523L63.0129 29.7673H66.3861L73.6467 49.8875H70.3445L68.5053 44.4492ZM61.6338 41.9397H67.7099L64.7146 33.1139H64.6308L61.6338 41.9397Z" fill="white"/>
<path d="M89.327 42.5543C89.327 47.1128 86.8884 50.0416 83.2083 50.0416C82.2761 50.0904 81.349 49.8755 80.5331 49.4216C79.7172 48.9678 79.0456 48.2932 78.5952 47.4751H78.5255V54.7409H75.516V35.2189H78.4291V37.6588H78.4845C78.9556 36.8447 79.6386 36.1736 80.4607 35.7169C81.2827 35.2603 82.2132 35.0351 83.153 35.0654C86.8741 35.0655 89.327 38.0085 89.327 42.5543ZM86.2337 42.5543C86.2337 39.5844 84.6996 37.6319 82.359 37.6319C80.0596 37.6319 78.5129 39.6255 78.5129 42.5543C78.5129 45.51 80.0596 47.4894 82.359 47.4894C84.6996 47.4894 86.2337 45.5511 86.2337 42.5543Z" fill="white"/>
<path d="M105.464 42.5543C105.464 47.1128 103.026 50.0416 99.3455 50.0416C98.4133 50.0904 97.4862 49.8755 96.6703 49.4216C95.8545 48.9677 95.1828 48.2932 94.7324 47.4751H94.6627V54.7409H91.6532V35.2189H94.5663V37.6588H94.6216C95.0928 36.8447 95.7758 36.1736 96.5978 35.7169C97.4199 35.2603 98.3503 35.0351 99.2901 35.0654C103.011 35.0654 105.464 38.0085 105.464 42.5543ZM102.371 42.5543C102.371 39.5844 100.837 37.6319 98.4963 37.6319C96.1968 37.6319 94.6501 39.6255 94.6501 42.5543C94.6501 45.51 96.1968 47.4894 98.4963 47.4894C100.837 47.4894 102.371 45.5511 102.371 42.5543H102.371Z" fill="white"/>
<path d="M116.13 44.2821C116.353 46.2774 118.29 47.5874 120.937 47.5874C123.474 47.5874 125.299 46.2773 125.299 44.4783C125.299 42.9166 124.198 41.9815 121.592 41.3406L118.986 40.7125C115.293 39.8201 113.579 38.0922 113.579 35.2885C113.579 31.817 116.603 29.4325 120.896 29.4325C125.146 29.4325 128.059 31.817 128.157 35.2885H125.119C124.937 33.2806 123.278 32.0686 120.854 32.0686C118.429 32.0686 116.77 33.2948 116.77 35.0796C116.77 36.5021 117.83 37.3391 120.422 37.9798L122.637 38.5241C126.763 39.5004 128.478 41.1587 128.478 44.1016C128.478 47.8658 125.481 50.2234 120.714 50.2234C116.255 50.2234 113.243 47.9212 113.049 44.282L116.13 44.2821Z" fill="white"/>
<path d="M134.973 31.7474V35.2189H137.761V37.6034H134.973V45.6904C134.973 46.9467 135.531 47.5321 136.757 47.5321C137.088 47.5263 137.418 47.5031 137.747 47.4624V49.8327C137.196 49.9357 136.636 49.9823 136.075 49.9719C133.107 49.9719 131.949 48.8564 131.949 46.0115V37.6034H129.817V35.2189H131.949V31.7474H134.973Z" fill="white"/>
<path d="M139.376 42.5543C139.376 37.9389 142.093 35.0386 146.33 35.0386C150.581 35.0386 153.285 37.9388 153.285 42.5543C153.285 47.1825 150.595 50.0701 146.33 50.0701C142.066 50.0701 139.376 47.1825 139.376 42.5543ZM150.218 42.5543C150.218 39.3882 148.768 37.5196 146.33 37.5196C143.891 37.5196 142.442 39.4025 142.442 42.5543C142.442 45.7331 143.891 47.5875 146.33 47.5875C148.768 47.5875 150.218 45.7331 150.218 42.5543H150.218Z" fill="white"/>
<path d="M155.766 35.2189H158.637V37.7157H158.706C158.9 36.9359 159.357 36.2468 159.999 35.7641C160.641 35.2815 161.43 35.0348 162.233 35.0654C162.58 35.0642 162.926 35.1019 163.264 35.1778V37.9942C162.826 37.8603 162.369 37.7989 161.912 37.8122C161.475 37.7945 161.039 37.8716 160.634 38.0383C160.229 38.205 159.866 38.4573 159.568 38.778C159.27 39.0986 159.045 39.4799 158.908 39.8958C158.771 40.3117 158.726 40.7522 158.776 41.1872V49.8881H155.766L155.766 35.2189Z" fill="white"/>
<path d="M177.14 45.5796C176.735 48.2426 174.143 50.0701 170.826 50.0701C166.561 50.0701 163.914 47.2109 163.914 42.6239C163.914 38.0227 166.575 35.0386 170.7 35.0386C174.756 35.0386 177.307 37.8265 177.307 42.2743V43.3059H166.952V43.4879C166.904 44.0277 166.972 44.5716 167.15 45.0833C167.328 45.5951 167.614 46.063 167.987 46.4559C168.36 46.8489 168.812 47.158 169.314 47.3627C169.815 47.5673 170.355 47.6628 170.896 47.6429C171.607 47.7096 172.321 47.5448 172.931 47.173C173.541 46.8013 174.015 46.2424 174.282 45.5796L177.14 45.5796ZM166.966 41.2015H174.296C174.323 40.7161 174.25 40.2303 174.08 39.7747C173.911 39.3191 173.649 38.9034 173.311 38.5538C172.973 38.2042 172.567 37.9282 172.118 37.7432C171.668 37.5581 171.186 37.468 170.7 37.4784C170.21 37.4755 169.724 37.5697 169.271 37.7556C168.817 37.9415 168.405 38.2155 168.058 38.5616C167.71 38.9077 167.435 39.3192 167.248 39.7723C167.061 40.2254 166.965 40.7112 166.966 41.2015V41.2015Z" fill="white"/>
<path d="M57.7664 24.2911V14.6235H61.6504C63.466 14.6235 64.5572 15.5476 64.5572 17.0349C64.5576 17.5235 64.3892 17.9972 64.0805 18.3758C63.7719 18.7544 63.3419 19.0147 62.8634 19.1124V19.2263C63.4571 19.2544 64.0164 19.5129 64.4227 19.9469C64.829 20.3809 65.0503 20.9562 65.0395 21.5507C65.0395 23.2524 63.8012 24.2912 61.7374 24.2912L57.7664 24.2911ZM59.2672 18.7168H61.0479C62.3748 18.7168 63.0643 18.2279 63.0643 17.3102C63.0643 16.4186 62.4143 15.8964 61.3025 15.8964H59.2672V18.7168ZM61.4369 23.0182C62.7892 23.0182 63.5055 22.4683 63.5055 21.4438C63.5055 20.432 62.7622 19.9027 61.35 19.9027H59.2672V23.0182H61.4369Z" fill="white"/>
<path d="M66.5814 22.2279C66.5814 20.9146 67.5588 20.1575 69.2936 20.0499L71.2689 19.9359V19.3062C71.2689 18.5356 70.7597 18.1005 69.776 18.1005C68.9726 18.1005 68.4159 18.3956 68.2562 18.9114H66.8629C67.01 17.6583 68.1882 16.8545 69.8424 16.8545C71.6706 16.8545 72.7017 17.7651 72.7017 19.3062V24.2911H71.3163V23.2658H71.2025C70.9714 23.6336 70.6468 23.9334 70.262 24.1347C69.8772 24.3359 69.4459 24.4314 69.0121 24.4113C68.706 24.4432 68.3966 24.4105 68.1039 24.3154C67.8112 24.2203 67.5416 24.0649 67.3126 23.8592C67.0836 23.6534 66.9002 23.402 66.7742 23.121C66.6483 22.84 66.5826 22.5358 66.5814 22.2279ZM71.2689 21.6044V20.9945L69.4882 21.1084C68.4839 21.1756 68.0285 21.5174 68.0285 22.1606C68.0285 22.8172 68.5978 23.1994 69.3807 23.1994C69.6101 23.2226 69.8418 23.1994 70.062 23.1312C70.2823 23.063 70.4866 22.9512 70.6627 22.8024C70.8389 22.6536 70.9834 22.4708 71.0875 22.265C71.1916 22.0592 71.2533 21.8346 71.2689 21.6044Z" fill="white"/>
<path d="M74.7673 14.8379C74.7562 14.6514 74.8013 14.4658 74.8968 14.3053C74.9923 14.1448 75.1338 14.0166 75.3029 13.9375C75.4721 13.8583 75.6611 13.8318 75.8455 13.8614C76.0298 13.8909 76.2011 13.9752 76.3371 14.1032C76.473 14.2313 76.5674 14.3972 76.608 14.5796C76.6486 14.7619 76.6336 14.9523 76.5648 15.126C76.496 15.2997 76.3767 15.4487 76.2223 15.5537C76.0679 15.6588 75.8855 15.7151 75.6988 15.7152C75.5794 15.7213 75.4601 15.7032 75.3479 15.662C75.2357 15.6207 75.1331 15.5572 75.046 15.4753C74.959 15.3933 74.8895 15.2946 74.8416 15.185C74.7937 15.0755 74.7684 14.9574 74.7673 14.8379ZM74.9808 16.9953H76.4152V24.2911H74.9807L74.9808 16.9953Z" fill="white"/>
<path d="M81.354 21.7049L79.7599 24.2911H78.18L80.598 20.6598L78.1594 16.9952H79.8405L81.4078 19.568H81.5216L83.0746 16.9952H84.6751L82.2713 20.5996L84.702 24.2911H83.0493L81.4615 21.7049H81.354Z" fill="white"/>
<path d="M85.9719 22.2279C85.9719 20.9146 86.9493 20.1575 88.6841 20.0499L90.6594 19.9359V19.3062C90.6594 18.5356 90.1502 18.1005 89.1665 18.1005C88.3631 18.1005 87.8064 18.3956 87.6467 18.9114H86.2534C86.4005 17.6583 87.5787 16.8545 89.2329 16.8545C91.0611 16.8545 92.0922 17.7651 92.0922 19.3062V24.2911H90.7068V23.2658H90.593C90.3619 23.6336 90.0373 23.9334 89.6525 24.1347C89.2677 24.3359 88.8364 24.4314 88.4026 24.4113C88.0965 24.4432 87.7871 24.4105 87.4944 24.3154C87.2017 24.2203 86.9321 24.0649 86.7031 23.8592C86.4741 23.6534 86.2907 23.402 86.1648 23.121C86.0388 22.84 85.9731 22.5358 85.9719 22.2279ZM90.6594 21.6044V20.9945L88.8787 21.1084C87.8744 21.1756 87.419 21.5174 87.419 22.1606C87.419 22.8172 87.9883 23.1994 88.7712 23.1994C89.0006 23.2226 89.2323 23.1994 89.4525 23.1312C89.6728 23.063 89.8771 22.9512 90.0532 22.8024C90.2294 22.6536 90.3739 22.4708 90.478 22.265C90.5821 22.0592 90.6438 21.8346 90.6594 21.6044Z" fill="white"/>
<path d="M94.3458 16.9953H95.7312V18.1139H95.8388C95.9938 17.7256 96.2679 17.3964 96.6217 17.1737C96.9755 16.951 97.3907 16.8461 97.8077 16.8742C98.0232 16.8713 98.2385 16.8915 98.4498 16.9344V18.3553C98.1857 18.2988 97.9164 18.2697 97.6464 18.2683C97.409 18.247 97.1698 18.2755 96.9442 18.3522C96.7185 18.4289 96.5114 18.5519 96.3361 18.7135C96.1608 18.875 96.0212 19.0714 95.9263 19.2901C95.8314 19.5089 95.7832 19.745 95.785 19.9835V24.2912H94.3458L94.3458 16.9953Z" fill="white"/>
<path d="M103.996 16.9953H105.382V18.1543H105.49C105.672 17.738 105.98 17.3891 106.37 17.1561C106.76 16.9231 107.213 16.8176 107.666 16.8545C108.021 16.8278 108.377 16.8813 108.708 17.0111C109.039 17.1409 109.337 17.3436 109.58 17.6042C109.822 17.8648 110.003 18.1766 110.108 18.5166C110.214 18.8565 110.242 19.2159 110.19 19.568V24.291H108.751V19.9296C108.751 18.7572 108.241 18.1741 107.177 18.1741C106.936 18.1629 106.696 18.2039 106.472 18.2943C106.249 18.3848 106.047 18.5226 105.882 18.6982C105.716 18.8738 105.591 19.0831 105.514 19.3118C105.437 19.5404 105.41 19.783 105.436 20.023V24.2911H103.996L103.996 16.9953Z" fill="white"/>
<path d="M112 22.2279C112 20.9146 112.978 20.1575 114.713 20.0499L116.688 19.9359V19.3062C116.688 18.5356 116.179 18.1005 115.195 18.1005C114.392 18.1005 113.835 18.3956 113.675 18.9114H112.282C112.429 17.6583 113.607 16.8545 115.261 16.8545C117.09 16.8545 118.121 17.7651 118.121 19.3062V24.2911H116.735V23.2658H116.622C116.39 23.6336 116.066 23.9334 115.681 24.1347C115.296 24.3359 114.865 24.4314 114.431 24.4113C114.125 24.4432 113.816 24.4105 113.523 24.3154C113.23 24.2203 112.961 24.0649 112.732 23.8592C112.503 23.6534 112.319 23.402 112.193 23.121C112.067 22.84 112.002 22.5358 112 22.2279ZM116.688 21.6044V20.9945L114.907 21.1084C113.903 21.1756 113.448 21.5174 113.448 22.1606C113.448 22.8172 114.017 23.1994 114.8 23.1994C115.029 23.2226 115.261 23.1994 115.481 23.1312C115.701 23.063 115.906 22.9512 116.082 22.8024C116.258 22.6536 116.402 22.4708 116.507 22.265C116.611 22.0592 116.672 21.8346 116.688 21.6044H116.688Z" fill="white"/>
</svg>
