<svg width="215" height="65" viewBox="0 0 215 65" fill="none" xmlns="http://www.w3.org/2000/svg">
<path d="M206.667 0.833252H8.74992C4.37766 0.833252 0.833252 4.37766 0.833252 8.74992V56.2499C0.833252 60.6222 4.37766 64.1666 8.74992 64.1666H206.667C211.039 64.1666 214.583 60.6222 214.583 56.2499V8.74992C214.583 4.37766 211.039 0.833252 206.667 0.833252Z" fill="black"/>
<path d="M206.667 2.09992C208.43 2.09992 210.122 2.80054 211.369 4.04766C212.616 5.29478 213.317 6.98623 213.317 8.74992V56.2499C213.317 58.0136 212.616 59.7051 211.369 60.9522C210.122 62.1993 208.43 62.8999 206.667 62.8999H8.74992C6.98623 62.8999 5.29478 62.1993 4.04766 60.9522C2.80054 59.7051 2.09992 58.0136 2.09992 56.2499V8.74992C2.09992 6.98623 2.80054 5.29478 4.04766 4.04766C5.29478 2.80054 6.98623 2.09992 8.74992 2.09992H206.667ZM206.667 0.833252H8.74992C6.65029 0.833252 4.63665 1.66733 3.15199 3.15199C1.66733 4.63665 0.833252 6.65029 0.833252 8.74992V56.2499C0.833252 58.3495 1.66733 60.3632 3.15199 61.8478C4.63665 63.3325 6.65029 64.1666 8.74992 64.1666H206.667C208.766 64.1666 210.78 63.3325 212.265 61.8478C213.749 60.3632 214.583 58.3495 214.583 56.2499V8.74992C214.583 6.65029 213.749 4.63665 212.265 3.15199C210.78 1.66733 208.766 0.833252 206.667 0.833252Z" fill="#A6A6A6"/>
<path d="M108.722 35.2708C107.388 35.2739 106.084 35.6725 104.977 36.4163C103.87 37.16 103.008 38.2155 102.5 39.4492C101.992 40.6829 101.862 42.0394 102.125 43.3471C102.389 44.6549 103.034 45.8553 103.979 46.7964C104.925 47.7374 106.128 48.377 107.437 48.6342C108.746 48.8914 110.102 48.7546 111.333 48.2412C112.565 47.7278 113.616 46.8608 114.355 45.7499C115.093 44.6389 115.486 43.3339 115.483 41.9999C115.495 41.11 115.329 40.2265 114.994 39.4022C114.658 38.5779 114.16 37.8295 113.529 37.2016C112.898 36.5738 112.148 36.0793 111.322 35.7475C110.496 35.4158 109.612 35.2537 108.722 35.2708ZM108.722 46.0849C107.904 46.1421 107.088 45.952 106.38 45.5393C105.672 45.1266 105.104 44.5104 104.751 43.7708C104.397 43.0312 104.275 42.2024 104.399 41.3922C104.523 40.5819 104.887 39.8277 105.446 39.2276C106.004 38.6274 106.73 38.2091 107.529 38.027C108.328 37.8449 109.164 37.9074 109.927 38.2064C110.69 38.5054 111.346 39.0271 111.808 39.7036C112.271 40.3802 112.52 41.1803 112.522 41.9999C112.547 42.5193 112.468 43.0385 112.29 43.5269C112.112 44.0154 111.837 44.4631 111.483 44.8439C111.129 45.2246 110.702 45.5305 110.228 45.7437C109.754 45.9568 109.242 46.0729 108.722 46.0849ZM93.965 35.2708C92.631 35.2739 91.3278 35.6725 90.2204 36.4163C89.1129 37.16 88.2508 38.2155 87.7432 39.4492C87.2356 40.6829 87.1052 42.0394 87.3686 43.3471C87.6319 44.6549 88.2771 45.8553 89.2226 46.7964C90.1681 47.7374 91.3715 48.377 92.6805 48.6342C93.9895 48.8914 95.3454 48.7546 96.5767 48.2412C97.8079 47.7278 98.8593 46.8608 99.5979 45.7499C100.336 44.6389 100.729 43.3339 100.726 41.9999C100.739 41.11 100.572 40.2265 100.237 39.4022C99.9013 38.5779 99.4032 37.8295 98.7724 37.2016C98.1416 36.5738 97.3909 36.0793 96.565 35.7475C95.7391 35.4158 94.8549 35.2537 93.965 35.2708ZM93.965 46.0849C93.1473 46.1421 92.3314 45.952 91.6232 45.5393C90.915 45.1266 90.3474 44.5104 89.994 43.7708C89.6407 43.0312 89.518 42.2024 89.642 41.3922C89.7659 40.5819 90.1308 39.8277 90.689 39.2276C91.2473 38.6274 91.9732 38.2091 92.7724 38.027C93.5716 37.8449 94.407 37.9074 95.1702 38.2064C95.9334 38.5054 96.589 39.0271 97.0517 39.7036C97.5145 40.3802 97.763 41.1803 97.765 41.9999C97.7905 42.5193 97.7118 43.0385 97.5334 43.5269C97.3551 44.0154 97.0807 44.4631 96.7266 44.8439C96.3724 45.2246 95.9456 45.5305 95.4713 45.7437C94.997 45.9568 94.4848 46.0729 93.965 46.0849ZM76.4217 37.3449V40.1949H83.2617C83.1544 41.5373 82.5964 42.8039 81.6783 43.7891C80.9922 44.4881 80.167 45.0354 79.256 45.3954C78.345 45.7554 77.3687 45.9202 76.39 45.8791C74.3744 45.8791 72.4413 45.0784 71.016 43.6531C69.5907 42.2278 68.79 40.2947 68.79 38.2791C68.79 36.2634 69.5907 34.3304 71.016 32.9051C72.4413 31.4798 74.3744 30.6791 76.39 30.6791C78.3224 30.6503 80.1882 31.3842 81.5833 32.7216L83.5942 30.7108C82.6505 29.7774 81.53 29.0417 80.2984 28.5469C79.0668 28.0521 77.7488 27.8081 76.4217 27.8291C75.0141 27.7743 73.6099 28.0042 72.2933 28.5051C70.9767 29.006 69.7748 29.7675 68.7595 30.744C67.7443 31.7205 66.9366 32.8919 66.3849 34.1881C65.8332 35.4842 65.5488 36.8783 65.5488 38.287C65.5488 39.6957 65.8332 41.0898 66.3849 42.3859C66.9366 43.6821 67.7443 44.8535 68.7595 45.83C69.7748 46.8065 70.9767 47.568 72.2933 48.0689C73.6099 48.5698 75.0141 48.7997 76.4217 48.7449C77.7761 48.799 79.1266 48.566 80.3846 48.0612C81.6426 47.5563 82.7795 46.7911 83.7208 45.8158C85.3835 43.9892 86.2695 41.587 86.1908 39.1183C86.1965 38.5241 86.1488 37.9306 86.0483 37.3449H76.4217ZM148.162 39.5616C147.75 38.3468 146.977 37.286 145.948 36.5198C144.919 35.7535 143.681 35.318 142.399 35.2708C141.533 35.2691 140.676 35.445 139.88 35.7878C139.085 36.1305 138.368 36.6327 137.775 37.2634C137.181 37.8941 136.723 38.6398 136.429 39.4545C136.135 40.2692 136.012 41.1355 136.066 41.9999C136.052 43.4453 136.507 44.8562 137.361 46.022C138.216 47.1878 139.424 48.0459 140.807 48.4681C142.189 48.8903 143.671 48.8539 145.031 48.3645C146.391 47.875 147.556 46.9587 148.352 45.7524L146.057 44.1691C145.714 44.7395 145.229 45.2106 144.649 45.5355C144.068 45.8605 143.413 46.028 142.747 46.0216C142.061 46.0499 141.382 45.87 140.8 45.5055C140.218 45.1409 139.76 44.6088 139.486 43.9791L148.495 40.2583L148.162 39.5616ZM138.979 41.8099C138.947 41.3181 139.013 40.8248 139.174 40.359C139.335 39.8931 139.588 39.4641 139.916 39.0969C140.245 38.7298 140.644 38.4319 141.089 38.2208C141.535 38.0097 142.018 37.8895 142.51 37.8674C143.02 37.8363 143.528 37.9564 143.97 38.2127C144.413 38.469 144.769 38.8501 144.996 39.3082L138.979 41.8099ZM131.664 48.3333H134.625V28.5416H131.664V48.3333ZM126.819 36.7749H126.708C126.266 36.2712 125.72 35.8689 125.108 35.5957C124.496 35.3224 123.832 35.1846 123.162 35.1916C121.431 35.2755 119.8 36.0219 118.605 37.2762C117.41 38.5304 116.743 40.1963 116.743 41.9287C116.743 43.661 117.41 45.3269 118.605 46.5812C119.8 47.8354 121.431 48.5818 123.162 48.6657C123.833 48.6792 124.499 48.5443 125.112 48.2706C125.725 47.9969 126.27 47.5912 126.708 47.0824H126.819V48.0483C126.819 50.6291 125.442 52.0066 123.225 52.0066C122.485 51.9903 121.766 51.7544 121.159 51.3287C120.553 50.903 120.087 50.3068 119.821 49.6158L117.256 50.6766C117.73 51.8676 118.555 52.8867 119.62 53.5992C120.686 54.3116 121.943 54.6838 123.225 54.6666C126.693 54.6666 129.558 52.6241 129.558 47.6524V35.6666H126.819V36.7749ZM123.415 46.0849C122.378 46.0202 121.404 45.5625 120.692 44.8051C119.98 44.0476 119.584 43.0472 119.584 42.0078C119.584 40.9684 119.98 39.9681 120.692 39.2106C121.404 38.4531 122.378 37.9954 123.415 37.9308C123.922 37.9526 124.42 38.0763 124.878 38.2943C125.336 38.5124 125.746 38.8204 126.083 39.2001C126.419 39.5797 126.676 40.0232 126.838 40.5042C127 40.9852 127.064 41.4939 127.025 41.9999C127.068 42.5077 127.008 43.0189 126.848 43.5027C126.688 43.9866 126.431 44.4329 126.094 44.8147C125.756 45.1966 125.345 45.506 124.885 45.7244C124.424 45.9427 123.924 46.0653 123.415 46.0849ZM162.032 28.5416H154.939V48.3333H157.9V40.8282H162.032C162.876 40.8889 163.724 40.775 164.522 40.4937C165.319 40.2125 166.051 39.7698 166.67 39.1934C167.289 38.6171 167.783 37.9193 168.121 37.1436C168.459 36.3679 168.633 35.5309 168.633 34.6849C168.633 33.8389 168.459 33.002 168.121 32.2263C167.783 31.4506 167.289 30.7528 166.67 30.1764C166.051 29.6 165.319 29.1574 164.522 28.8761C163.724 28.5948 162.876 28.481 162.032 28.5416ZM162.032 38.0416H157.9V31.2966H162.096C162.541 31.2966 162.981 31.3842 163.392 31.5545C163.804 31.7248 164.177 31.9744 164.492 32.289C164.806 32.6036 165.056 32.9772 165.226 33.3883C165.397 33.7994 165.484 34.24 165.484 34.6849C165.484 35.1299 165.397 35.5705 165.226 35.9816C165.056 36.3927 164.806 36.7662 164.492 37.0808C164.177 37.3955 163.804 37.645 163.392 37.8153C162.981 37.9856 162.541 38.0733 162.096 38.0733L162.032 38.0416ZM180.304 35.2074C179.226 35.1409 178.152 35.392 177.215 35.9294C176.278 36.4669 175.519 37.2673 175.032 38.2316L177.644 39.3241C177.908 38.8481 178.304 38.4588 178.785 38.2031C179.265 37.9474 179.809 37.8363 180.352 37.8833C180.728 37.8394 181.108 37.8707 181.472 37.9756C181.836 38.0805 182.175 38.2567 182.469 38.494C182.764 38.7312 183.009 39.0249 183.189 39.3577C183.369 39.6905 183.481 40.0559 183.518 40.4324V40.6224C182.566 40.122 181.506 39.8611 180.431 39.8624C177.612 39.8624 174.731 41.4458 174.731 44.3274C174.759 44.9399 174.909 45.5406 175.174 46.0937C175.438 46.6468 175.812 47.1412 176.271 47.5473C176.73 47.9535 177.266 48.2632 177.848 48.458C178.429 48.6529 179.044 48.7289 179.655 48.6816C180.398 48.7227 181.139 48.5654 181.801 48.226C182.463 47.8866 183.023 47.3771 183.423 46.7499H183.518V48.3333H186.368V40.7174C186.368 37.2499 183.74 35.2391 180.367 35.2391L180.304 35.2074ZM179.94 46.0533C178.974 46.0533 177.628 45.5624 177.628 44.3749C177.628 42.7916 179.307 42.2533 180.795 42.2533C181.736 42.23 182.665 42.4597 183.487 42.9183C183.387 43.7781 182.98 44.5728 182.339 45.155C181.699 45.7373 180.869 46.0677 180.003 46.0849L179.94 46.0533ZM196.755 35.6666L193.367 44.2482H193.272L189.757 35.6666H186.59L191.862 47.6683L188.854 54.3341H191.942L200.048 35.6666H196.755ZM170.155 48.3333H173.1V28.5416H170.155V48.3333Z" fill="white"/>
<path d="M17.3633 12.7716C16.8415 13.3885 16.5753 14.1815 16.6191 14.9883V50.0116C16.5652 50.8197 16.8327 51.6164 17.3633 52.2283L17.4741 52.3549L37.0916 32.7374V32.2624L17.4741 12.6608L17.3633 12.7716Z" fill="url(#paint0_linear)"/>
<path d="M43.5832 39.2766L37.0916 32.7374V32.2624L43.5832 25.7233L43.7257 25.8183L51.4999 30.2199C53.7166 31.4708 53.7166 33.5291 51.4999 34.7958L43.7574 39.1974L43.5832 39.2766Z" fill="url(#paint1_linear)"/>
<path d="M43.7733 39.1815L37.0916 32.4999L17.3633 52.2282C17.8107 52.6265 18.3834 52.8556 18.982 52.8758C19.5806 52.8961 20.1675 52.7062 20.6408 52.339L43.7733 39.1815Z" fill="url(#paint2_linear)"/>
<path d="M43.7733 25.8181L20.6408 12.6764C20.1706 12.3042 19.5842 12.1097 18.9847 12.127C18.3853 12.1444 17.8111 12.3726 17.3633 12.7714L37.0916 32.4997L43.7733 25.8181Z" fill="url(#paint3_linear)"/>
<path opacity="0.2" d="M43.5833 39.0388L20.6408 52.1013C20.1847 52.4455 19.6289 52.6317 19.0574 52.6317C18.486 52.6317 17.9302 52.4455 17.4741 52.1013L17.3633 52.2122L17.4741 52.3388C17.9302 52.683 18.486 52.8692 19.0574 52.8692C19.6289 52.8692 20.1847 52.683 20.6408 52.3388L43.7733 39.1813L43.5833 39.0388Z" fill="black"/>
<path opacity="0.12" d="M17.3632 52.0065C16.8546 51.3785 16.6054 50.5798 16.6666 49.774V50.0116C16.6127 50.8197 16.8801 51.6163 17.4107 52.2282L17.5216 52.1174L17.3632 52.0065Z" fill="black"/>
<path opacity="0.12" d="M51.4999 34.5582L43.5833 39.039L43.7258 39.1815L51.4999 34.7799C51.9588 34.5858 52.3569 34.2717 52.6523 33.8704C52.9476 33.4692 53.1293 32.9957 53.1783 32.4999C53.0793 32.9504 52.8758 33.3715 52.5843 33.729C52.2928 34.0865 51.9213 34.3705 51.4999 34.5582Z" fill="black"/>
<path opacity="0.25" d="M20.6407 12.8983L51.4999 30.4417C51.9213 30.6293 52.2927 30.9134 52.5842 31.2709C52.8757 31.6284 53.0792 32.0494 53.1782 32.5C53.1293 32.0042 52.9476 31.5307 52.6522 31.1295C52.3568 30.7282 51.9587 30.414 51.4999 30.22L20.6407 12.6767C18.4399 11.41 16.619 12.455 16.619 14.9883V15.2258C16.6665 12.6925 18.4399 11.6475 20.6407 12.8983Z" fill="white"/>
<path d="M66.2882 21.4168V11.9168H69.1857C69.8301 11.8856 70.4742 11.9861 71.0785 12.212C71.6828 12.438 72.2348 12.7847 72.7007 13.231C73.1344 13.6888 73.4725 14.2284 73.6954 14.8183C73.9183 15.4082 74.0215 16.0366 73.999 16.6668C74.0215 17.297 73.9183 17.9254 73.6954 18.5153C73.4725 19.1052 73.1344 19.6448 72.7007 20.1026C72.2348 20.5489 71.6828 20.8956 71.0785 21.1215C70.4742 21.3475 69.8301 21.4479 69.1857 21.4168H66.2882ZM67.5074 20.2451H69.1857C69.6666 20.2889 70.1512 20.2264 70.6052 20.0621C71.0592 19.8977 71.4716 19.6355 71.813 19.2941C72.1544 18.9527 72.4166 18.5403 72.581 18.0863C72.7453 17.6323 72.8078 17.1477 72.764 16.6668C72.805 16.1866 72.7405 15.7032 72.5752 15.2504C72.4098 14.7977 72.1476 14.3865 71.8068 14.0457C71.466 13.7049 71.0548 13.4427 70.6021 13.2773C70.1493 13.112 69.6659 13.0475 69.1857 13.0885H67.5074V20.2451Z" fill="white" stroke="white" stroke-width="0.2" stroke-miterlimit="10"/>
<path d="M75.7249 21.4167V11.9167H76.944V21.4167H75.7249Z" fill="white" stroke="white" stroke-width="0.2" stroke-miterlimit="10"/>
<path d="M81.7891 21.6225C81.0668 21.6108 80.3652 21.3788 79.7783 20.9575C79.1226 20.5094 78.6592 19.8312 78.48 19.0575L79.5883 18.5983C79.7242 19.1138 80.0109 19.5769 80.4116 19.9283C80.7898 20.2697 81.2797 20.4611 81.7891 20.4667C82.2784 20.4831 82.7587 20.3323 83.1508 20.0392C83.3324 19.9146 83.4798 19.7463 83.5794 19.5499C83.679 19.3534 83.7276 19.1351 83.7208 18.915C83.7335 18.6783 83.6881 18.4421 83.5888 18.2269C83.4895 18.0117 83.3391 17.8239 83.1508 17.68C82.6089 17.3137 82.0095 17.0408 81.3775 16.8725C80.665 16.6896 80.0075 16.3364 79.4616 15.8433C79.2502 15.6384 79.0834 15.3919 78.9717 15.1195C78.86 14.847 78.8058 14.5544 78.8125 14.26C78.8128 13.9216 78.8849 13.5872 79.0241 13.2787C79.1633 12.9703 79.3664 12.6949 79.62 12.4708C80.1934 12.0141 80.8984 11.7537 81.631 11.728C82.3637 11.7024 83.0852 11.9128 83.6891 12.3283C84.1451 12.6536 84.4883 13.113 84.6708 13.6425L83.5625 14.1017C83.4574 13.7731 83.2526 13.4853 82.9766 13.2783C82.6317 13.003 82.1984 12.8623 81.7575 12.8825C81.3233 12.8754 80.8994 13.0149 80.5541 13.2783C80.4004 13.3913 80.2756 13.5393 80.1903 13.7099C80.1049 13.8806 80.0614 14.0692 80.0633 14.26C80.0612 14.4341 80.102 14.6061 80.1821 14.7607C80.2621 14.9154 80.3791 15.0479 80.5225 15.1467C80.928 15.4466 81.3837 15.6717 81.8683 15.8117C82.2669 15.931 82.6582 16.0737 83.04 16.2392C83.3766 16.3936 83.6952 16.5848 83.99 16.8092C84.3028 17.0329 84.5534 17.3326 84.7183 17.68C84.8963 18.0612 84.9831 18.4786 84.9716 18.8992C84.9788 19.3279 84.881 19.7519 84.6866 20.1342C84.5125 20.4808 84.2504 20.7756 83.9266 20.9892C83.6173 21.2059 83.2752 21.3716 82.9133 21.48C82.5476 21.5825 82.1688 21.6305 81.7891 21.6225Z" fill="white" stroke="white" stroke-width="0.2" stroke-miterlimit="10"/>
<path d="M87.9165 21.4166H86.6974V11.9166H89.9432C90.7185 11.9033 91.4683 12.193 92.0332 12.7241C92.3088 12.9832 92.5284 13.2959 92.6785 13.6431C92.8287 13.9903 92.9061 14.3646 92.9061 14.7428C92.9061 15.1211 92.8287 15.4953 92.6785 15.8425C92.5284 16.1897 92.3088 16.5025 92.0332 16.7616C91.4683 17.2927 90.7185 17.5824 89.9432 17.5691H87.9165V21.4166ZM87.9165 16.3974H89.9749C90.2052 16.408 90.4351 16.3681 90.6484 16.2806C90.8617 16.1931 91.0533 16.06 91.2099 15.8907C91.3656 15.7428 91.4896 15.5648 91.5743 15.3674C91.659 15.1701 91.7027 14.9576 91.7027 14.7428C91.7027 14.5281 91.659 14.3156 91.5743 14.1182C91.4896 13.9209 91.3656 13.7428 91.2099 13.5949C91.0533 13.4256 90.8617 13.2926 90.6484 13.2051C90.4351 13.1175 90.2052 13.0777 89.9749 13.0882H87.9165V16.3974Z" fill="white" stroke="white" stroke-width="0.2" stroke-miterlimit="10"/>
<path d="M102.167 20.1816C101.709 20.6392 101.166 21.0023 100.569 21.25C99.9708 21.4977 99.3302 21.6252 98.6832 21.6252C98.0362 21.6252 97.3956 21.4977 96.7979 21.25C96.2002 21.0023 95.6572 20.6392 95.1999 20.1816C94.3048 19.2301 93.8064 17.9729 93.8064 16.6666C93.8064 15.3602 94.3048 14.1031 95.1999 13.1516C95.6572 12.6939 96.2002 12.3308 96.7979 12.0831C97.3956 11.8354 98.0362 11.7079 98.6832 11.7079C99.3302 11.7079 99.9708 11.8354 100.569 12.0831C101.166 12.3308 101.709 12.6939 102.167 13.1516C102.635 13.6086 103.007 14.1554 103.26 14.7593C103.513 15.3632 103.642 16.0118 103.639 16.6666C103.65 17.3224 103.524 17.9733 103.271 18.5782C103.017 19.1832 102.641 19.7291 102.167 20.1816ZM96.1024 19.3899C96.436 19.7364 96.8372 20.0107 97.2811 20.1959C97.725 20.3811 98.2022 20.4732 98.6832 20.4666C99.1646 20.4761 99.6426 20.3853 100.087 20.1999C100.531 20.0146 100.932 19.7387 101.264 19.3899C101.947 18.6475 102.326 17.6755 102.326 16.6666C102.326 15.6577 101.947 14.6856 101.264 13.9432C100.932 13.5944 100.531 13.3186 100.087 13.1332C99.6426 12.9478 99.1646 12.857 98.6832 12.8666C98.2022 12.8599 97.725 12.952 97.2811 13.1372C96.8372 13.3224 96.436 13.5967 96.1024 13.9432C95.4292 14.6906 95.0567 15.6607 95.0567 16.6666C95.0567 17.6724 95.4292 18.6425 96.1024 19.3899Z" fill="white" stroke="white" stroke-width="0.2" stroke-miterlimit="10"/>
<path d="M105.333 21.4167V11.9167H106.917L111.524 19.3109V17.4742V11.9167H112.743V21.4167H111.477L106.727 13.6742V15.4951V21.4167H105.333Z" fill="white" stroke="white" stroke-width="0.2" stroke-miterlimit="10"/>
<path d="M114.833 21.4165V11.9165H116.052V21.4165H114.833ZM115.973 11.1723H114.912L115.609 9.47815H116.923L115.973 11.1723Z" fill="white" stroke="white" stroke-width="0.2" stroke-miterlimit="10"/>
<path d="M120.597 21.4167L117.256 11.9167H118.602L121.167 19.6276L123.969 11.9167H125.315L121.863 21.4167H120.597Z" fill="white" stroke="white" stroke-width="0.2" stroke-miterlimit="10"/>
<path d="M132.25 13.0884H127.912V16.0967H131.822V17.2367H127.912V20.2451H132.25V21.4167H126.692V11.9167H132.25V13.0884Z" fill="white" stroke="white" stroke-width="0.2" stroke-miterlimit="10"/>
<path d="M134.15 21.4167V11.9167H135.417V20.2451H139.533V21.4167H134.15Z" fill="white" stroke="white" stroke-width="0.2" stroke-miterlimit="10"/>
<path d="M144.204 21.4167V11.9167H145.692L150.316 19.3109V17.4742V11.9167H151.535V21.4167H150.268L145.423 13.6742V15.4951V21.4167H144.204Z" fill="white" stroke="white" stroke-width="0.2" stroke-miterlimit="10"/>
<path d="M161.478 20.1814C161.021 20.6391 160.478 21.0022 159.88 21.2499C159.283 21.4976 158.642 21.6251 157.995 21.6251C157.348 21.6251 156.707 21.4976 156.11 21.2499C155.512 21.0022 154.969 20.6391 154.512 20.1814C153.617 19.2299 153.118 17.9728 153.118 16.6664C153.118 15.3601 153.617 14.1029 154.512 13.1514C154.959 12.6808 155.5 12.3094 156.1 12.0612C156.7 11.813 157.346 11.6936 157.995 11.7106C158.643 11.7003 159.287 11.8229 159.886 12.0707C160.485 12.3184 161.027 12.6862 161.478 13.1514C161.934 13.6145 162.291 14.1642 162.531 14.7679C162.77 15.3716 162.886 16.0171 162.872 16.6664C162.892 17.3165 162.779 17.9639 162.54 18.5685C162.3 19.1731 161.939 19.7221 161.478 20.1814ZM155.414 19.3897C155.751 19.7315 156.153 20.0029 156.596 20.1882C157.039 20.3734 157.515 20.4688 157.995 20.4688C158.475 20.4688 158.951 20.3734 159.394 20.1882C159.837 20.0029 160.239 19.7315 160.576 19.3897C161.259 18.6474 161.638 17.6753 161.638 16.6664C161.638 15.6575 161.259 14.6855 160.576 13.9431C160.239 13.6013 159.837 13.3299 159.394 13.1446C158.951 12.9594 158.475 12.864 157.995 12.864C157.515 12.864 157.039 12.9594 156.596 13.1446C156.153 13.3299 155.751 13.6013 155.414 13.9431C154.731 14.6855 154.352 15.6575 154.352 16.6664C154.352 17.6753 154.731 18.6474 155.414 19.3897Z" fill="white" stroke="white" stroke-width="0.2" stroke-miterlimit="10"/>
<defs>
<linearGradient id="paint0_linear" x1="35.3499" y1="14.6241" x2="8.78161" y2="41.1924" gradientUnits="userSpaceOnUse">
<stop stop-color="#00A0FF"/>
<stop offset="0.01" stop-color="#00A1FF"/>
<stop offset="0.26" stop-color="#00BEFF"/>
<stop offset="0.51" stop-color="#00D2FF"/>
<stop offset="0.76" stop-color="#00DFFF"/>
<stop offset="1" stop-color="#00E3FF"/>
</linearGradient>
<linearGradient id="paint1_linear" x1="54.3974" y1="32.4999" x2="16.0966" y2="32.4999" gradientUnits="userSpaceOnUse">
<stop stop-color="#FFE000"/>
<stop offset="0.41" stop-color="#FFBD00"/>
<stop offset="0.78" stop-color="#FFA500"/>
<stop offset="1" stop-color="#FF9C00"/>
</linearGradient>
<linearGradient id="paint2_linear" x1="40.1474" y1="36.1415" x2="4.11078" y2="72.1624" gradientUnits="userSpaceOnUse">
<stop stop-color="#FF3A44"/>
<stop offset="1" stop-color="#C31162"/>
</linearGradient>
<linearGradient id="paint3_linear" x1="12.3916" y1="1.11808" x2="28.4783" y2="17.2047" gradientUnits="userSpaceOnUse">
<stop stop-color="#32A071"/>
<stop offset="0.07" stop-color="#2DA771"/>
<stop offset="0.48" stop-color="#15CF74"/>
<stop offset="0.8" stop-color="#06E775"/>
<stop offset="1" stop-color="#00F076"/>
</linearGradient>
</defs>
</svg>
