<svg width="390" height="116" viewBox="0 0 390 116" fill="none" xmlns="http://www.w3.org/2000/svg">
<path fill-rule="evenodd" clip-rule="evenodd" d="M67.3558 0H71.8469V115.004H67.3558V0ZM17.2096 37.8207C23.2926 36.9044 30.7579 38.0177 34.4202 40.5667C36.8628 42.2649 37.9918 44.6449 37.8041 47.7036V81.3022C37.8041 82.4187 40.0372 82.4531 41.6416 81.3022C43.246 80.1482 44.3468 77.0801 45.0787 77.3772C45.8105 77.6774 45.4227 79.6008 44.4751 82.4531C43.5243 85.3054 40.7878 87.651 37.8041 87.651C34.8205 87.651 33.0879 87.013 31.5179 85.5618C30.4733 84.5923 29.4663 82.8003 28.4967 80.1826C25.4631 83.2381 22.7078 85.3273 20.2245 86.4469C16.5028 88.1295 12.2713 87.9043 8.33381 87.0099C4.39943 86.1248 1.33137 82.3749 0.658955 80.1888C-0.013455 77.9996 -0.820347 73.6899 1.8818 69.0424C4.58708 64.395 9.43156 62.212 14.1541 60.348C17.3003 59.1002 22.0823 58.409 28.4967 58.2714C29.0784 50.2963 29.0784 45.4737 28.4967 43.7973C27.6242 41.2828 25.804 41.2828 24.0401 40.5698C22.273 39.8598 19.0111 39.8348 15.3926 40.5698C11.7772 41.3047 11.2737 43.2219 11.2737 44.4479C11.2737 45.6738 12.2557 45.9897 13.4942 48.2071C14.7358 50.4276 13.8695 53.3424 11.602 54.4621C9.33461 55.5786 6.95459 55.2158 4.98427 52.939C3.01395 50.6622 3.78957 46.1086 6.00696 43.7973C8.22748 41.483 11.1267 38.7402 17.2096 37.8238V37.8207ZM28.2059 61.4114C19.5115 61.7867 13.8132 63.7382 11.1173 67.2692C7.07031 72.5703 9.22202 78.4593 12.6372 80.7236C16.0525 82.9879 20.4028 82.3437 23.6429 80.7236C26.8798 79.1036 27.8212 75.826 28.2059 72.7079C28.4592 70.6281 28.4592 66.8626 28.2059 61.4114ZM147.319 41.3298V38.6339H167.536V41.3298H160.655L145.083 87.2882H141.299L128.257 53.136L115.854 87.2882H111.882L97.2264 41.3266H89.8205V38.6307H114.528V41.3266H107.616L117.452 72.0042L129.405 38.6307H133.787L146.275 72.001L156.664 41.3266H147.323L147.319 41.3298Z" fill="#323232"/>
<path d="M236.278 76.0199V61.6084C236.278 60.2073 236.211 58.973 236.077 57.9055C235.944 56.838 235.677 55.9539 235.277 55.2534C234.877 54.5195 234.309 53.9857 233.575 53.6521C232.875 53.2851 231.958 53.1017 230.823 53.1017C229.055 53.1017 227.571 53.6021 226.37 54.6029C225.202 55.5703 224.368 56.8213 223.868 58.3558V76.0199H219.264V49.749H222.417L223.317 53.2518H223.818C224.885 52.0508 226.103 51.05 227.471 50.2494C228.872 49.4154 230.64 48.9984 232.775 48.9984C234.576 48.9984 236.077 49.382 237.278 50.1493C238.513 50.9166 239.447 52.2009 240.081 54.0024C241.081 52.4678 242.349 51.2502 243.884 50.3495C245.418 49.4488 247.136 48.9984 249.038 48.9984C250.639 48.9984 251.99 49.1819 253.091 49.5488C254.225 49.9158 255.143 50.5496 255.843 51.4503C256.544 52.3511 257.061 53.5687 257.394 55.1033C257.728 56.6378 257.895 58.5727 257.895 60.9079V76.0199H253.291V60.9079C253.291 59.5735 253.208 58.4226 253.041 57.4551C252.908 56.4877 252.641 55.6871 252.24 55.0532C251.84 54.386 251.273 53.9023 250.539 53.6021C249.838 53.2685 248.904 53.1017 247.737 53.1017C245.835 53.1017 244.334 53.6021 243.233 54.6029C242.132 55.6037 241.348 57.1048 240.881 59.1064V76.0199H236.278ZM265.313 62.9095C265.313 60.7411 265.596 58.8062 266.164 57.1048C266.731 55.3701 267.565 53.9023 268.666 52.7013C269.766 51.5004 271.101 50.583 272.669 49.9492C274.27 49.3153 276.088 48.9984 278.123 48.9984C280.258 48.9984 282.126 49.3487 283.728 50.0492C285.329 50.7498 286.663 51.7339 287.731 53.0016C288.798 54.2359 289.582 55.7037 290.083 57.4051C290.616 59.0731 290.883 60.9079 290.883 62.9095C290.883 65.0445 290.583 66.9627 289.982 68.664C289.415 70.3654 288.581 71.8166 287.48 73.0175C286.413 74.2185 285.079 75.1359 283.477 75.7697C281.909 76.4035 280.125 76.7205 278.123 76.7205C275.921 76.7205 274.02 76.3702 272.419 75.6696C270.817 74.9691 269.483 74.0016 268.415 72.7673C267.381 71.533 266.597 70.0818 266.063 68.4138C265.563 66.7125 265.313 64.8777 265.313 62.9095ZM270.217 62.9095C270.217 64.1438 270.35 65.3614 270.617 66.5624C270.917 67.73 271.384 68.7808 272.018 69.7149C272.652 70.649 273.469 71.3996 274.47 71.9667C275.471 72.5338 276.705 72.8173 278.173 72.8173C283.377 72.8173 285.979 69.5147 285.979 62.9095C285.979 61.6084 285.829 60.3574 285.529 59.1565C285.262 57.9555 284.812 56.9047 284.178 56.004C283.577 55.0699 282.777 54.3193 281.776 53.7522C280.775 53.1851 279.574 52.9015 278.173 52.9015C275.571 52.9015 273.586 53.7355 272.218 55.4035C270.884 57.0381 270.217 59.5401 270.217 62.9095ZM298.282 40.992H302.886V53.0016H303.386C304.153 51.6672 305.254 50.6831 306.689 50.0492C308.123 49.382 309.641 49.0484 311.242 49.0484C314.879 49.0484 317.631 50.166 319.499 52.4011C321.4 54.6029 322.351 57.9388 322.351 62.4091C322.351 66.9794 321.117 70.4655 318.648 72.8674C316.18 75.2693 312.71 76.4703 308.24 76.4703C306.038 76.4703 304.037 76.2868 302.235 75.9198C300.467 75.5529 299.149 75.1192 298.282 74.6188V40.992ZM310.592 52.9515C309.524 52.9515 308.574 53.1183 307.74 53.4519C306.939 53.7855 306.222 54.2526 305.588 54.8531C304.954 55.4202 304.404 56.0874 303.937 56.8546C303.503 57.5886 303.153 58.3558 302.886 59.1565V71.6164C304.52 72.2502 306.505 72.5672 308.84 72.5672C311.476 72.5672 313.561 71.7665 315.095 70.1652C316.663 68.5306 317.447 65.9285 317.447 62.359C317.447 61.0246 317.314 59.7903 317.047 58.6561C316.78 57.4885 316.363 56.4877 315.796 55.6537C315.229 54.8197 314.512 54.1692 313.644 53.7021C312.81 53.2017 311.793 52.9515 310.592 52.9515ZM331.053 49.749H335.657V76.0199H331.053V49.749ZM330.103 43.494C330.103 42.7267 330.403 42.0429 331.003 41.4424C331.604 40.8085 332.388 40.4916 333.355 40.4916C334.323 40.4916 335.123 40.8085 335.757 41.4424C336.391 42.0429 336.708 42.7267 336.708 43.494C336.708 44.2613 336.391 44.9452 335.757 45.5456C335.123 46.1128 334.323 46.3963 333.355 46.3963C332.388 46.3963 331.604 46.1128 331.003 45.5456C330.403 44.9452 330.103 44.2613 330.103 43.494ZM350.838 69.0644C350.838 70.4321 351.089 71.3996 351.589 71.9667C352.123 72.5338 352.823 72.8173 353.691 72.8173C354.224 72.8173 354.741 72.784 355.242 72.7173C355.742 72.6505 356.343 72.5171 357.043 72.317L357.644 75.7197C357.31 75.8531 356.91 75.9699 356.443 76.0699C355.976 76.2034 355.492 76.3201 354.992 76.4202C354.491 76.5203 353.991 76.587 353.49 76.6204C352.99 76.6871 352.54 76.7205 352.139 76.7205C350.338 76.7205 348.903 76.2701 347.836 75.3694C346.768 74.4353 346.235 72.9007 346.235 70.7657V40.992H350.838V69.0644ZM383.811 73.8682C382.644 74.7355 381.193 75.4361 379.458 75.9699C377.723 76.4703 375.838 76.7205 373.803 76.7205C371.602 76.7205 369.684 76.4035 368.049 75.7697C366.448 75.1025 365.13 74.1684 364.096 72.9675C363.062 71.7665 362.294 70.3154 361.794 68.614C361.294 66.9127 361.043 65.0111 361.043 62.9095C361.043 58.4059 362.144 54.9698 364.346 52.6013C366.581 50.1994 369.75 48.9984 373.854 48.9984C375.155 48.9984 376.456 49.1485 377.757 49.4488C379.058 49.7156 380.225 50.2494 381.259 51.05C382.294 51.8173 383.128 52.8848 383.761 54.2526C384.429 55.6203 384.762 57.4051 384.762 59.6068C384.762 60.1406 384.746 60.7578 384.712 61.4583C384.679 62.1589 384.612 62.8427 384.512 63.5099H365.747C365.814 66.5791 366.548 68.8976 367.949 70.4655C369.35 72.0334 371.735 72.8173 375.105 72.8173C376.506 72.8173 377.84 72.5838 379.108 72.1168C380.375 71.6164 381.359 71.0326 382.06 70.3654L383.811 73.8682ZM380.359 60.2073C380.425 57.5385 379.875 55.6537 378.707 54.5528C377.573 53.4519 375.972 52.9015 373.904 52.9015C371.568 52.9015 369.717 53.4519 368.349 54.5528C366.981 55.6537 366.181 57.5385 365.947 60.2073H380.359Z" fill="#323232"/>
</svg>
